<?xml version="1.0" standalone="no"?>
<!DOCTYPE svg PUBLIC "-//W3C//DTD SVG 20010904//EN"
 "http://www.w3.org/TR/2001/REC-SVG-20010904/DTD/svg10.dtd">
<svg version="1.0" xmlns="http://www.w3.org/2000/svg"
 width="1920.000000pt" height="1280.000000pt" viewBox="0 0 1920.000000 1280.000000"
 preserveAspectRatio="xMidYMid meet">

<g transform="translate(0.000000,1280.000000) scale(0.100000,-0.100000)"
fill="#000000" stroke="none">
<path d="M8145 6408 c-11 -6 -32 -21 -46 -35 l-25 -23 -53 22 c-53 21 -54 21
-120 4 -36 -10 -70 -22 -75 -27 -6 -5 -16 -9 -24 -9 -8 0 -28 -7 -45 -15 -18
-8 -279 -71 -582 -140 -788 -181 -1799 -417 -2315 -540 -421 -101 -529 -123
-610 -129 -135 -11 -198 -61 -171 -137 6 -18 11 -46 11 -62 0 -17 6 -38 13
-46 22 -26 44 -146 97 -531 28 -201 123 -867 210 -1480 88 -613 160 -1125 160
-1137 0 -27 -23 -31 -200 -38 -152 -6 -163 2 -19 13 l94 7 3 59 3 59 -68 -7
c-353 -34 -644 -46 -613 -26 8 5 34 10 57 10 63 0 252 24 224 28 -19 3 -357
-23 -413 -31 -24 -4 -27 -8 -30 -49 -2 -35 -3 -36 -51 -41 -34 -3 -56 -11 -72
-28 -24 -24 -24 -25 -26 -300 -3 -339 -5 -333 116 -341 32 -2 40 -7 40 -23 0
-28 -48 -31 -150 -11 -127 25 -342 36 -515 26 -253 -15 -382 -51 -542 -147
-79 -47 -208 -156 -208 -175 0 -17 43 4 68 33 37 45 208 154 294 188 123 50
196 62 403 68 140 4 234 1 360 -12 260 -26 278 -29 283 -42 2 -7 -3 -13 -11
-13 -7 0 -22 -9 -32 -20 -10 -11 -22 -17 -26 -14 -5 3 -15 2 -21 -3 -9 -5 -3
-10 17 -15 27 -6 26 -7 -9 -4 -49 3 -62 -16 -69 -105 -5 -56 -3 -69 12 -83 10
-9 23 -16 31 -16 9 0 10 -3 1 -14 -9 -11 -8 -15 5 -20 23 -9 334 -7 334 2 0 4
73 7 163 8 89 0 191 3 227 6 223 20 311 33 357 50 l51 19 -5 59 -6 59 39 -14
c22 -8 38 -19 37 -24 -4 -14 14 -14 23 0 3 6 17 9 31 6 35 -7 339 33 362 47 5
3 11 -1 15 -9 7 -19 26 -19 26 0 0 13 33 15 240 15 136 0 240 4 240 9 0 5
-114 11 -258 13 -190 2 -263 6 -274 16 -9 7 -22 10 -31 6 -11 -4 -17 3 -22 25
-4 17 -10 31 -15 31 -13 0 -22 37 -15 60 4 11 10 18 15 15 13 -8 31 30 24 49
-4 12 0 16 15 16 25 0 25 1 6 47 -9 20 -13 43 -10 51 6 17 -25 73 -38 65 -4
-3 -11 4 -14 16 -3 12 -13 21 -23 21 -10 0 -21 7 -24 16 -3 8 -10 13 -15 10
-5 -3 -20 3 -34 14 -14 11 -27 20 -30 20 -11 0 -67 55 -67 67 0 6 -9 15 -20
18 -15 5 -19 12 -15 26 4 13 2 19 -8 19 -8 0 -26 11 -40 24 -22 20 -28 22 -38
10 -6 -8 -15 -14 -20 -14 -17 0 -37 68 -48 165 -14 119 -36 260 -56 370 -23
119 -70 446 -225 1540 -178 1257 -167 1169 -166 1246 1 63 3 67 39 101 22 21
37 45 37 59 0 35 10 46 60 64 41 16 252 69 510 130 58 14 173 41 255 60 83 20
209 50 280 66 72 17 175 41 230 54 156 36 419 97 800 185 193 44 397 91 455
105 301 71 859 197 885 200 17 2 52 6 78 10 42 7 51 5 69 -15 11 -12 40 -30
64 -40 42 -19 43 -20 32 -50 -5 -17 -8 -33 -5 -36 5 -6 416 -138 677 -217 110
-34 289 -72 297 -63 13 13 43 159 43 209 0 93 -39 157 -97 157 -12 0 -59 12
-105 26 -216 66 -525 162 -564 174 -39 13 -64 12 -89 -2z m-190 -98 c3 -5 1
-10 -4 -10 -6 0 -11 5 -11 10 0 6 2 10 4 10 3 0 8 -4 11 -10z m52 -12 c-3 -8
-6 -5 -6 6 -1 11 2 17 5 13 3 -3 4 -12 1 -19z m894 -206 c-6 -2 -9 -8 -5 -13
8 -14 -6 -70 -17 -63 -5 3 -9 1 -9 -3 0 -5 9 -14 20 -21 25 -15 26 -40 3 -49
-10 -4 -23 -13 -29 -21 -9 -12 -14 -12 -30 -3 -18 12 -18 12 0 7 14 -5 17 -2
12 10 -3 8 -6 23 -7 32 0 14 -2 13 -9 -3 -7 -16 -9 -17 -9 -3 -1 9 6 24 15 32
8 9 13 16 10 16 -7 0 31 78 47 99 9 11 12 11 16 0 2 -7 -1 -15 -8 -17z m76 -4
c-3 -8 -6 -5 -6 6 -1 11 2 17 5 13 3 -3 4 -12 1 -19z m-227 -132 c-16 -49 -31
-56 -18 -9 12 44 18 56 25 49 3 -2 0 -21 -7 -40z m100 -66 c0 -5 -9 -10 -21
-10 -11 0 -17 5 -14 10 3 6 13 10 21 10 8 0 14 -4 14 -10z m67 4 c-3 -3 -12
-4 -19 -1 -8 3 -5 6 6 6 11 1 17 -2 13 -5z m-4326 -4506 c-3 -78 -12 -95 -59
-108 -48 -13 -95 -13 -87 0 3 6 18 10 33 10 32 1 89 29 58 30 -12 0 -16 5 -12
15 5 15 -4 19 -37 16 -19 -2 -41 43 -33 66 3 7 20 13 38 13 18 1 47 7 63 14
17 7 32 12 34 10 3 -2 3 -32 2 -66z m-638 -185 c-7 -2 -19 -2 -25 0 -7 3 -2 5
12 5 14 0 19 -2 13 -5z"/>
<path d="M17446 4351 c-9 -14 10 -57 28 -64 12 -5 16 -21 16 -66 0 -33 4 -107
10 -163 5 -57 15 -155 21 -218 6 -63 20 -189 30 -280 11 -91 31 -275 45 -410
14 -134 27 -246 29 -249 6 -5 317 -3 322 3 2 2 -5 55 -16 117 -27 155 -42 259
-51 354 -4 44 -19 161 -33 260 -14 99 -33 261 -43 360 -9 99 -22 197 -29 217
-7 21 -9 35 -4 32 20 -12 7 16 -20 45 -35 37 -41 38 -42 9 -1 -21 -2 -20 -14
7 -13 29 -14 26 -15 -46 0 -42 4 -98 9 -125 5 -27 21 -153 36 -279 14 -127 42
-351 61 -498 20 -148 33 -271 31 -274 -3 -2 -10 26 -16 64 -6 37 -17 106 -25
153 -9 56 -14 72 -15 47 0 -20 5 -79 13 -130 8 -50 17 -123 20 -162 6 -66 5
-68 -8 -39 -18 37 -61 264 -76 394 -4 36 -14 106 -22 155 -9 50 -21 139 -28
199 -7 60 -14 125 -17 145 -2 20 -6 56 -8 81 -3 25 -9 65 -14 90 -5 25 -12 76
-16 113 -9 103 -55 201 -55 117 l0 -29 -40 39 c-42 41 -55 47 -64 31z"/>
<path d="M18030 4281 c0 -28 -4 -53 -10 -56 -6 -3 -10 4 -10 18 0 25 -25 55
-37 43 -8 -8 24 -465 43 -611 41 -320 76 -717 62 -709 -5 3 -8 22 -9 42 0 20
-3 31 -6 25 -11 -30 -22 -8 -32 70 -6 45 -13 120 -15 167 -3 47 -9 110 -15
140 -8 47 -25 303 -22 350 2 58 -13 219 -20 214 -6 -3 -7 11 -3 34 5 29 2 40
-8 45 -10 3 -17 28 -22 73 -8 82 -27 154 -39 154 -6 0 -16 8 -23 17 -19 27
-25 13 -30 -83 -4 -63 5 -191 30 -439 83 -809 91 -875 115 -876 82 -4 271 -2
277 3 4 4 1 55 -6 113 -8 65 -16 101 -21 93 -5 -7 -7 19 -5 59 2 40 0 71 -4
68 -12 -7 -21 92 -50 520 -6 83 -14 215 -20 295 -5 80 -12 160 -16 178 -7 35
-24 44 -24 13 0 -28 -11 -52 -21 -45 -5 3 -9 19 -9 35 0 36 -25 99 -39 99 -6
0 -11 -22 -11 -49z m88 -341 l-1 -55 -8 45 c-4 25 -7 61 -7 80 0 32 1 33 8 10
4 -14 8 -50 8 -80z m-161 -37 c-3 -10 -5 -4 -5 12 0 17 2 24 5 18 2 -7 2 -21
0 -30z m170 -55 c-3 -7 -5 -2 -5 12 0 14 2 19 5 13 2 -7 2 -19 0 -25z m-90 0
c-3 -8 -6 -5 -6 6 -1 11 2 17 5 13 3 -3 4 -12 1 -19z m90 -75 c-3 -10 -5 -2
-5 17 0 19 2 27 5 18 2 -10 2 -26 0 -35z"/>
<path d="M18260 4289 c0 -6 -6 -9 -14 -6 -8 3 -16 -2 -18 -11 -5 -24 9 -324
55 -1167 l12 -210 45 4 c25 1 47 5 49 7 8 7 -15 25 -35 28 -28 4 -32 35 -31
221 1 144 2 155 6 70 6 -91 7 -96 14 -55 9 48 -9 1046 -19 1093 -4 18 -11 26
-20 23 -7 -3 -16 -1 -19 4 -8 14 -25 13 -25 -1z m31 -99 c5 0 9 -35 8 -77 l-1
-78 -13 70 c-13 66 -19 143 -8 103 2 -10 9 -18 14 -18z"/>
<path d="M17638 4223 c5 -21 7 -23 10 -9 2 10 0 22 -6 28 -6 6 -7 0 -4 -19z"/>
<path d="M17931 4204 c0 -11 3 -14 6 -6 3 7 2 16 -1 19 -3 4 -6 -2 -5 -13z"/>
<path d="M17943 4120 c0 -25 2 -35 4 -22 2 12 2 32 0 45 -2 12 -4 2 -4 -23z"/>
<path d="M17651 4105 c0 -11 4 -29 9 -40 8 -18 9 -18 9 5 0 14 -4 32 -9 40 -8
12 -10 12 -9 -5z"/>
<path d="M18183 4040 c0 -25 2 -35 4 -22 2 12 2 32 0 45 -2 12 -4 2 -4 -23z"/>
<path d="M17035 3951 c13 -35 45 -148 70 -250 69 -279 123 -430 189 -527 30
-44 35 -37 7 10 -10 17 -33 72 -51 121 -18 50 -36 99 -40 110 -13 32 -36 111
-70 240 -32 125 -104 333 -121 350 -5 5 2 -19 16 -54z"/>
<path d="M18182 3950 c0 -19 2 -27 5 -17 2 9 2 25 0 35 -3 9 -5 1 -5 -18z"/>
<path d="M17711 3694 c0 -11 3 -14 6 -6 3 7 2 16 -1 19 -3 4 -6 -2 -5 -13z"/>
<path d="M17723 3630 c0 -25 2 -35 4 -22 2 12 2 32 0 45 -2 12 -4 2 -4 -23z"/>
<path d="M5846 3630 c-35 -11 -65 -38 -77 -68 -5 -13 -16 -186 -24 -385 -8
-199 -27 -634 -40 -967 -14 -333 -29 -709 -32 -836 l-6 -230 24 -23 c36 -34
94 -61 132 -61 23 0 41 -8 57 -25 13 -14 29 -24 36 -21 7 3 10 -2 7 -14 -5
-17 3 -19 87 -22 65 -2 98 1 112 10 12 9 18 9 16 2 -2 -7 28 -11 96 -12 85 -1
101 2 113 18 16 21 17 11 2 -17 -10 -19 -9 -20 11 -9 14 7 45 9 93 4 40 -5 77
-6 82 -5 24 9 183 6 178 -2 -3 -5 4 -4 17 3 15 8 30 9 51 1 19 -6 27 -7 24 0
-4 6 9 9 32 8 21 -1 338 -1 705 0 514 1 668 4 671 14 4 9 6 9 6 0 1 -10 28
-13 101 -13 83 0 102 3 107 16 4 11 8 12 13 4 12 -19 189 -18 201 1 8 12 10
12 19 -1 7 -12 28 -14 107 -12 60 3 101 8 105 15 6 9 8 9 8 0 0 -10 27 -13
100 -13 95 0 101 1 110 23 7 17 9 18 9 5 1 -27 20 -22 31 8 6 14 14 22 20 19
5 -3 10 -1 10 4 0 6 8 10 18 9 32 -4 147 14 161 25 15 13 74 35 111 43 48 10
70 32 71 72 5 198 -5 2361 -11 2377 -5 12 -21 32 -36 44 l-27 21 -1786 -1
c-982 0 -1799 -5 -1815 -9z m434 -2494 c0 -3 -4 -8 -10 -11 -5 -3 -10 -1 -10
4 0 6 5 11 10 11 6 0 10 -2 10 -4z m1517 -2 c-3 -3 -12 -4 -19 -1 -8 3 -5 6 6
6 11 1 17 -2 13 -5z m220 0 c-3 -3 -12 -4 -19 -1 -8 3 -5 6 6 6 11 1 17 -2 13
-5z m220 0 c-3 -3 -12 -4 -19 -1 -8 3 -5 6 6 6 11 1 17 -2 13 -5z"/>
<path d="M17742 3510 c-1 -25 3 -63 7 -85 l9 -40 0 40 c0 22 -3 60 -7 85 l-8
45 -1 -45z"/>
<path d="M18011 3454 c0 -11 3 -14 6 -6 3 7 2 16 -1 19 -3 4 -6 -2 -5 -13z"/>
<path d="M13125 3449 c-55 -4 -263 -12 -462 -18 -199 -5 -367 -12 -373 -16 -7
-4 -112 -9 -234 -12 -413 -7 -385 0 -411 -100 -10 -37 -22 -73 -27 -79 -5 -7
-8 -28 -6 -48 1 -19 0 -37 -2 -39 -3 -3 -27 2 -55 9 -27 8 -67 17 -87 21 -21
3 -38 10 -38 15 0 6 -18 8 -39 6 -22 -2 -37 0 -34 5 2 4 -8 7 -24 7 -15 0 -69
2 -119 6 -60 4 -94 2 -98 -5 -9 -13 16 -25 84 -41 30 -7 61 -18 69 -24 8 -6
17 -11 20 -11 3 0 5 -3 3 -7 -1 -5 22 -8 50 -8 29 0 87 -9 128 -20 72 -20 99
-20 740 -16 480 3 721 8 865 20 110 8 206 16 213 16 7 0 11 4 8 9 -7 11 18 21
55 21 16 0 29 5 29 12 0 12 -65 10 -450 -18 -121 -8 -438 -17 -727 -21 l-512
-6 -12 29 c-29 69 1 243 37 213 17 -14 347 -6 1104 26 126 6 399 22 478 29 18
2 32 -2 32 -8 0 -6 7 0 16 12 8 12 25 22 37 23 22 0 22 0 -1 10 -37 14 -148
18 -257 8z"/>
<path d="M18016 3393 c9 -38 14 -42 14 -10 0 14 -5 29 -10 32 -7 4 -8 -3 -4
-22z"/>
<path d="M18043 3173 c1 -40 5 -73 9 -73 10 0 9 41 -2 100 -7 41 -8 39 -7 -27z"/>
<path d="M12720 3190 c0 -5 10 -10 23 -11 12 0 30 -2 40 -4 9 -2 17 0 17 5 0
4 -14 10 -31 14 -42 8 -49 8 -49 -4z"/>
<path d="M12901 3196 c2 -2 24 -6 49 -9 30 -4 38 -3 25 3 -19 8 -83 14 -74 6z"/>
<path d="M18232 3155 c0 -16 2 -22 5 -12 2 9 2 23 0 30 -3 6 -5 -1 -5 -18z"/>
<path d="M12375 3149 c-4 -5 26 -9 71 -9 43 0 74 3 71 7 -11 10 -136 12 -142
2z"/>
<path d="M12560 3150 c0 -5 4 -10 9 -10 6 0 13 5 16 10 3 6 -1 10 -9 10 -9 0
-16 -4 -16 -10z"/>
<path d="M11015 3084 c48 -8 215 -9 215 -2 0 4 -53 7 -117 7 -65 -1 -109 -3
-98 -5z"/>
<path d="M13228 2953 c7 -3 16 -2 19 1 4 3 -2 6 -13 5 -11 0 -14 -3 -6 -6z"/>
<path d="M13514 2679 c-4 -8 0 -18 12 -25 10 -7 28 -20 39 -29 l20 -17 -20 7
c-51 18 -51 19 -50 -34 0 -27 2 -48 5 -46 3 2 5 -18 6 -43 1 -44 6 -86 20
-172 3 -19 15 -45 27 -57 11 -13 18 -23 15 -23 -3 0 10 -17 28 -37 19 -20 34
-40 34 -44 0 -3 36 -25 79 -47 73 -38 83 -41 133 -35 45 6 49 8 23 13 l-30 5
-5 130 c-5 121 1 210 18 295 l7 34 1345 3 c740 2 1360 6 1378 9 73 11 18 43
-121 69 -78 15 -161 15 -879 5 -740 -10 -953 -16 -1398 -40 -315 -17 -377 -15
-472 21 -51 19 -105 32 -140 33 -56 2 -78 10 -65 22 4 4 13 1 22 -6 13 -11 36
-7 24 4 -14 12 -48 15 -55 5z m126 -89 c0 -5 -4 -10 -9 -10 -6 0 -13 5 -16 10
-3 6 1 10 9 10 9 0 16 -4 16 -10z m-53 -161 c5 -16 8 -18 15 -7 8 10 9 10 5
-2 -6 -24 -42 -18 -45 8 -4 28 18 29 25 1z m184 -124 c-4 -15 -7 -12 -12 15
-4 19 -5 39 -1 45 9 14 20 -35 13 -60z m-194 33 c-3 -8 -6 -5 -6 6 -1 11 2 17
5 13 3 -3 4 -12 1 -19z"/>
<path d="M9550 2604 c-6 -16 -10 -293 -10 -736 1 -622 3 -708 15 -698 8 7 15
9 16 4 0 -5 4 1 9 13 5 13 15 20 23 17 7 -2 37 7 66 21 49 25 51 28 46 58 -13
67 -14 100 -20 377 -3 157 -2 324 2 371 8 82 8 86 -11 81 -23 -6 -46 22 -46
55 0 24 26 43 59 43 11 0 25 8 31 18 10 15 11 14 6 -8 -7 -33 14 -170 27 -170
6 0 7 18 3 47 -3 26 -9 98 -13 161 -7 136 -15 149 -89 150 -59 2 -84 24 -58
53 16 18 38 144 28 160 -3 5 -21 9 -40 9 -28 0 -36 -5 -44 -26z m81 -682 c6
-7 10 -29 8 -50 -1 -20 2 -45 6 -56 5 -11 3 -27 -4 -39 -12 -18 -11 -19 13
-15 27 5 36 -6 12 -15 -8 -3 -17 -24 -21 -46 -4 -24 -15 -47 -27 -55 -20 -14
-20 -15 13 -30 20 -8 27 -15 17 -15 -26 -1 -23 -46 4 -65 22 -16 22 -16 1 -16
-18 0 -21 -6 -20 -35 1 -21 -7 -42 -19 -56 l-19 -21 -6 38 c-5 32 -6 27 -7
-26 0 -48 2 -60 9 -45 8 17 9 17 4 -5 -2 -14 -5 -41 -6 -60 -1 -34 -2 -34 -10
10 -15 74 -24 620 -10 620 6 0 11 10 11 23 l1 22 19 -25 c11 -14 25 -31 31
-38z m46 -84 c-3 -7 -5 -2 -5 12 0 14 2 19 5 13 2 -7 2 -19 0 -25z"/>
<path d="M5593 2593 c-51 -3 -63 -7 -68 -23 -11 -34 4 -40 91 -40 l85 0 -3 28
c-3 28 -16 43 -33 40 -5 -1 -38 -3 -72 -5z"/>
<path d="M11280 2579 c0 -5 16 -17 35 -25 29 -12 145 -15 668 -21 900 -9 1127
-9 1165 -1 22 4 35 2 37 -5 2 -7 -1 -94 -8 -194 l-12 -181 -949 -4 c-873 -4
-950 -6 -961 -21 -15 -21 -26 -22 -19 -3 4 9 -9 24 -35 42 -23 15 -41 31 -41
35 0 5 -4 9 -10 9 -16 0 -11 -32 9 -54 15 -17 22 -56 36 -206 10 -102 19 -188
22 -192 9 -16 20 -7 29 24 7 25 17 34 39 39 l30 7 -32 1 -33 1 0 101 c0 131 4
138 72 129 44 -5 260 -5 593 -1 44 1 65 5 56 10 -44 28 10 31 582 31 320 0
599 3 619 6 20 4 39 13 43 22 16 43 36 284 29 370 l-6 92 -979 0 c-678 0 -979
-3 -979 -11z m255 -503 c11 -2 -32 -4 -95 -4 -63 -1 -110 2 -103 6 11 7 152 5
198 -2z m62 -2 c-3 -3 -12 -4 -19 -1 -8 3 -5 6 6 6 11 1 17 -2 13 -5z"/>
<path d="M13064 2491 c4 -5 -40 -10 -101 -10 -126 -1 -346 -17 -288 -21 22 -1
50 -1 62 0 12 1 30 -3 40 -9 14 -8 -3 -10 -64 -11 -49 0 -83 4 -83 10 0 6 -10
10 -22 10 -19 0 -20 -2 -8 -10 12 -8 9 -10 -12 -10 -16 0 -28 -3 -28 -8 0 -4
42 -8 93 -9 50 -1 116 -4 146 -8 37 -5 51 -3 47 4 -5 7 3 11 19 11 15 0 24 -4
20 -10 -4 -6 11 -10 37 -9 34 0 39 2 23 10 -14 6 -10 7 15 2 57 -10 93 -12
136 -6 54 6 64 14 57 42 -4 16 -8 19 -13 10 -6 -9 -13 -8 -27 6 -14 15 -15 18
-2 13 9 -3 22 -2 30 3 9 6 -2 9 -34 9 -27 0 -46 -4 -43 -9z m33 -27 c-3 -3
-12 -4 -19 -1 -8 3 -5 6 6 6 11 1 17 -2 13 -5z m-234 -11 c-13 -2 -33 -2 -45
0 -13 2 -3 4 22 4 25 0 35 -2 23 -4z"/>
<path d="M12225 2430 c-7 -12 2 -12 30 0 19 8 19 9 -2 9 -12 1 -25 -3 -28 -9z"/>
<path d="M11683 2423 c9 -2 23 -2 30 0 6 3 -1 5 -18 5 -16 0 -22 -2 -12 -5z"/>
<path d="M4936 2403 c-6 -14 -5 -15 5 -6 7 7 10 15 7 18 -3 3 -9 -2 -12 -12z"/>
<path d="M12953 2393 c37 -2 96 -2 130 0 34 2 4 3 -68 3 -71 0 -99 -1 -62 -3z"/>
<path d="M5340 2360 c0 -5 5 -10 11 -10 5 0 7 5 4 10 -3 6 -8 10 -11 10 -2 0
-4 -4 -4 -10z"/>
<path d="M5682 2345 c0 -16 2 -22 5 -12 2 9 2 23 0 30 -3 6 -5 -1 -5 -18z"/>
<path d="M17998 2274 c-68 -36 -77 -137 -17 -193 17 -15 36 -21 72 -21 42 0
54 5 83 34 29 29 34 41 34 81 0 40 -5 52 -34 81 -27 27 -42 34 -72 34 -22 -1
-51 -7 -66 -16z"/>
<path d="M12923 2263 c9 -2 23 -2 30 0 6 3 -1 5 -18 5 -16 0 -22 -2 -12 -5z"/>
<path d="M13058 2213 c12 -2 32 -2 45 0 12 2 2 4 -23 4 -25 0 -35 -2 -22 -4z"/>
<path d="M14705 2170 c-143 -21 -321 -45 -395 -54 -74 -9 -209 -26 -300 -37
-91 -11 -255 -23 -364 -26 -199 -6 -199 -6 -175 -25 15 -13 32 -18 50 -14 15
3 29 1 31 -4 6 -19 150 -29 264 -19 63 5 122 6 135 1 33 -12 137 -4 163 12 12
8 66 16 131 19 95 5 112 4 130 -11 16 -14 31 -16 70 -11 28 3 42 7 33 7 -9 1
-29 7 -45 14 l-28 11 45 8 c25 4 99 10 165 14 66 3 156 9 200 14 44 4 135 9
202 10 67 1 148 4 180 8 32 3 68 5 81 5 13 0 22 2 19 4 -8 8 -307 114 -319
113 -7 -1 -130 -18 -273 -39z"/>
<path d="M11337 2188 c-6 -4 33 -8 87 -8 55 0 97 3 93 6 -9 9 -166 11 -180 2z"/>
<path d="M12200 2190 l-605 -5 695 -3 c382 -1 732 -5 778 -9 70 -5 82 -4 82 9
0 18 44 17 -950 8z"/>
<path d="M11126 2156 c3 -9 11 -16 16 -16 13 0 5 23 -10 28 -7 2 -10 -2 -6
-12z"/>
<path d="M5361 2144 c0 -11 3 -14 6 -6 3 7 2 16 -1 19 -3 4 -6 -2 -5 -13z"/>
<path d="M11080 2150 c0 -5 5 -10 11 -10 5 0 7 5 4 10 -3 6 -8 10 -11 10 -2 0
-4 -4 -4 -10z"/>
<path d="M13635 2124 c28 -19 49 -38 48 -42 -2 -4 2 -7 7 -6 6 1 20 2 33 3 20
2 20 3 -8 16 -16 8 -48 26 -70 40 -60 37 -67 30 -10 -11z"/>
<path d="M5000 2110 c-364 -5 -353 -17 20 -22 395 -4 660 1 660 15 0 14 -120
15 -680 7z"/>
<path d="M15607 2091 c20 -18 292 -72 428 -85 234 -24 266 -25 272 -9 4 10 21
12 72 7 72 -6 121 6 121 31 0 12 12 15 54 15 58 0 93 21 59 35 -23 10 -1018
15 -1006 6z"/>
<path d="M13070 2070 c-67 -5 -74 -7 -32 -8 33 -1 71 -11 102 -27 27 -14 56
-25 65 -25 8 0 20 11 25 25 7 19 17 25 42 26 l33 1 -30 8 c-35 9 -86 9 -205 0z"/>
<path d="M12068 2063 c45 -2 119 -2 165 0 45 1 8 3 -83 3 -91 0 -128 -2 -82
-3z"/>
<path d="M12322 2064 c11 -10 628 -15 646 -5 11 7 -92 10 -317 11 -184 0 -332
-3 -329 -6z"/>
<path d="M12298 2033 c6 -2 18 -2 25 0 6 3 1 5 -13 5 -14 0 -19 -2 -12 -5z"/>
<path d="M12528 2033 c12 -2 32 -2 45 0 12 2 2 4 -23 4 -25 0 -35 -2 -22 -4z"/>
<path d="M12608 2033 c6 -2 18 -2 25 0 6 3 1 5 -13 5 -14 0 -19 -2 -12 -5z"/>
<path d="M12723 2033 c37 -2 96 -2 130 0 34 2 4 3 -68 3 -71 0 -99 -1 -62 -3z"/>
<path d="M12696 1970 c14 -14 356 -151 362 -145 6 6 -215 111 -287 136 -60 21
-91 25 -75 9z"/>
<path d="M13659 1959 c-11 -7 -11 -9 4 -9 9 0 17 -7 17 -15 0 -12 16 -15 82
-15 84 0 103 6 33 11 -49 3 -61 9 -44 20 11 7 10 9 -3 9 -9 0 -20 -5 -23 -11
-5 -7 -14 -5 -29 5 -15 9 -28 11 -37 5z"/>
<path d="M13788 1963 c6 -2 18 -2 25 0 6 3 1 5 -13 5 -14 0 -19 -2 -12 -5z"/>
<path d="M13560 1929 c0 -5 5 -7 10 -4 6 3 10 8 10 11 0 2 -4 4 -10 4 -5 0
-10 -5 -10 -11z"/>
<path d="M11013 1908 c-16 -21 -23 -47 -14 -53 5 -3 7 -14 4 -24 -3 -14 2 -21
19 -27 l23 -8 -24 -6 c-39 -9 -36 -28 6 -35 21 -3 48 -8 60 -11 21 -4 22 -2
11 21 -6 14 -15 25 -20 25 -4 0 -8 6 -8 14 0 8 -11 17 -25 20 -14 4 -25 11
-25 16 0 6 11 10 25 10 28 0 30 8 13 45 -12 27 -30 32 -45 13z"/>
<path d="M15613 1913 c9 -2 25 -2 35 0 9 3 1 5 -18 5 -19 0 -27 -2 -17 -5z"/>
<path d="M13780 1890 c0 -5 9 -10 21 -10 11 0 17 5 14 10 -3 6 -13 10 -21 10
-8 0 -14 -4 -14 -10z"/>
<path d="M15720 1885 c-52 -8 -104 -15 -115 -16 -11 0 -78 -5 -150 -10 -71 -5
-179 -11 -240 -14 -125 -7 -142 -9 -430 -62 l-210 -38 -380 2 c-325 1 -377 -1
-360 -13 39 -27 45 -35 45 -66 0 -20 -9 -41 -25 -58 l-25 -27 20 -18 c38 -34
11 -50 -35 -19 -21 14 -28 14 -68 0 -25 -8 -76 -20 -113 -27 -38 -6 -71 -13
-73 -15 -2 -2 2 -11 9 -20 12 -13 11 -17 -1 -25 -19 -12 -29 -11 -29 1 0 6 -7
10 -15 10 -8 0 -23 5 -33 11 -14 9 -85 7 -283 -5 -145 -9 -345 -21 -444 -27
-322 -18 -392 -27 -190 -22 99 2 292 8 428 13 136 6 285 9 330 8 96 -1 -71
-10 -523 -27 -162 -6 -328 -14 -369 -17 -41 -3 -360 -6 -709 -6 l-634 -2 -29
45 c-37 55 -59 79 -72 79 -5 0 -2 -11 7 -25 9 -13 16 -31 16 -39 0 -7 8 -13
17 -12 14 1 18 -8 18 -43 0 -25 -5 -50 -12 -57 -10 -9 -9 -15 3 -24 12 -11 13
-10 8 4 -3 9 -1 16 6 16 6 0 8 5 4 12 -5 8 -2 9 11 4 16 -6 16 -4 4 10 -12 15
-11 16 11 9 23 -7 61 -34 85 -62 5 -6 21 -14 35 -16 24 -4 24 -4 -2 -6 -16 0
-28 -7 -28 -13 -1 -7 -8 0 -16 15 -25 46 -47 68 -55 55 -10 -16 1 -38 19 -38
12 0 11 -4 -6 -16 -19 -13 -25 -14 -39 -2 -15 12 -15 11 -2 -12 8 -14 19 -28
24 -32 6 -5 5 -8 -4 -8 -11 0 -11 -3 -1 -15 7 -9 11 -18 8 -20 -5 -6 -117 102
-178 170 -34 38 -22 34 29 -10 15 -12 10 -2 -13 28 -35 43 -39 65 -7 35 8 -7
6 -1 -4 15 -9 15 -26 28 -36 29 -11 0 -25 1 -31 2 -7 1 -12 -5 -10 -13 1 -7
-1 -18 -6 -25 -38 -48 -17 -90 98 -199 44 -43 76 -77 71 -77 -4 0 -18 9 -31
20 -41 35 -33 22 26 -45 32 -36 65 -65 75 -65 9 0 22 -7 29 -15 11 -13 7 -15
-29 -15 -22 0 -41 4 -41 8 0 5 -22 37 -50 71 -27 34 -50 70 -50 80 0 9 -15 31
-33 49 l-32 32 -33 -20 c-36 -22 -67 -26 -77 -10 -13 21 18 42 55 38 31 -3 36
0 32 14 -10 39 -28 40 -71 2 -44 -40 -49 -55 -26 -74 8 -7 15 -16 15 -21 0 -5
-7 -9 -15 -9 -16 0 -20 -27 -6 -48 12 -20 125 -51 145 -40 27 15 90 6 94 -14
3 -14 -3 -18 -23 -18 -27 0 -27 -1 -11 -24 19 -29 14 -33 -36 -31 -41 2 -50
-13 -22 -36 14 -12 14 -14 -2 -26 -16 -12 -17 -14 0 -32 10 -10 34 -22 54 -26
20 -4 43 -11 50 -17 9 -8 12 -5 12 11 0 23 10 27 27 10 20 -20 46 -2 39 26 -4
14 -2 25 3 25 4 0 11 13 14 29 6 26 11 30 54 35 95 12 527 25 1001 32 265 3
482 9 482 13 0 3 -210 5 -467 5 -367 -1 -428 0 -283 7 249 10 1928 31 1940 24
24 -15 7 -26 -35 -24 l-46 3 -3 -81 c-2 -73 -1 -80 16 -75 22 5 68 -5 68 -17
0 -4 -136 -11 -302 -14 -167 -3 -505 -11 -753 -16 -844 -18 -1733 -23 -1739
-9 -3 7 -5 4 -3 -7 2 -17 13 -21 72 -28 39 -4 594 -10 1235 -12 1388 -5 1434
-6 1495 -38 11 -6 91 -12 180 -13 88 -1 187 -5 220 -9 52 -6 200 -55 260 -86
11 -5 34 -17 50 -25 17 -8 37 -19 45 -24 8 -5 35 -19 60 -31 25 -13 47 -26 50
-29 14 -19 56 -30 136 -36 49 -3 886 -7 1861 -8 974 0 1775 -4 1779 -9 4 -4
-96 -8 -222 -8 -469 -3 -978 -14 -1129 -25 -44 -4 -442 -8 -885 -11 -443 -3
-897 -6 -1008 -6 -112 -1 -206 1 -208 4 -2 3 -27 4 -56 2 -77 -5 -412 -16
-488 -17 -36 0 -164 1 -285 1 -121 1 -366 0 -545 -2 -496 -5 -624 -6 -760 -5
-138 1 -185 -2 -196 -12 -3 -4 -15 -3 -26 3 -11 6 -29 9 -39 6 -11 -3 -33 -2
-49 3 -18 5 -30 4 -32 -2 -3 -8 -116 -15 -143 -8 -32 8 -74 -2 -78 -18 -4 -15
-5 -16 -6 0 -1 22 -69 37 -81 18 -6 -9 -13 -9 -28 -1 -33 18 -52 13 -52 -11
-1 -21 -2 -22 -14 -6 -18 24 -30 23 -57 -6 -18 -19 -30 -23 -55 -19 -26 4 -33
1 -37 -13 -4 -15 -5 -15 -6 4 -1 18 -5 22 -20 17 -11 -3 -22 -2 -25 3 -2 4
-26 9 -51 11 -34 1 -50 -2 -59 -15 -16 -21 -76 -11 -77 14 0 11 -2 12 -6 5 -6
-15 -33 -17 -33 -3 0 6 -5 10 -11 10 -5 0 -8 -4 -5 -9 3 -5 -1 -11 -9 -15 -8
-3 -15 -13 -15 -21 0 -12 -6 -15 -20 -10 -24 8 -60 -2 -60 -17 0 -7 23 -8 70
-4 42 4 70 3 70 -2 0 -14 -35 -21 -76 -16 -19 2 -44 -1 -56 -7 -20 -11 -21
-10 -15 35 l7 46 -33 0 c-46 0 -77 -10 -77 -25 0 -7 -9 -15 -21 -18 -15 -4
-23 0 -26 14 -3 11 -10 16 -17 11 -6 -4 -20 -7 -31 -7 -14 0 -22 -9 -26 -30
-6 -26 -7 -26 -8 -6 -1 28 -27 50 -58 51 -23 0 -31 -14 -14 -24 18 -11 -13
-54 -43 -60 -60 -12 -144 -7 -161 11 -14 14 -18 14 -26 2 -7 -12 -10 -11 -21
3 -7 9 -31 18 -53 21 -22 3 -56 9 -75 13 -47 12 -162 2 -168 -13 -2 -9 10 -13
44 -13 25 0 64 -5 85 -12 30 -8 45 -8 64 0 20 9 33 9 58 -2 30 -14 25 -15 -88
-17 -275 -7 -265 -9 -265 49 0 34 -1 35 -19 18 -19 -18 -46 -18 -111 -1 -55
15 -56 15 -40 25 11 7 1 9 -30 9 -41 -1 -42 -2 -15 -9 26 -7 19 -14 -10 -11
-5 0 -20 -7 -32 -17 -26 -19 -22 -61 6 -63 9 -1 -3 -5 -26 -11 -46 -10 -58
-27 -20 -29 14 -1 7 -5 -18 -11 -22 -6 -44 -17 -48 -25 -7 -11 -11 -10 -25 4
-10 10 -13 18 -6 20 6 2 19 9 28 16 14 10 13 12 -13 12 -19 0 -27 -4 -24 -12
6 -16 -53 -18 -62 -3 -11 18 -35 11 -35 -10 0 -13 -7 -20 -20 -20 -11 0 -20 5
-20 10 0 6 -4 10 -10 10 -5 0 -10 -6 -10 -13 0 -9 -13 -13 -40 -11 -22 1 -40
-2 -40 -7 0 -13 -28 -11 -75 5 -48 16 -154 14 -165 -4 -5 -8 -9 -5 -13 9 -5
22 -27 29 -27 10 0 -7 -10 -9 -25 -5 -20 5 -23 3 -18 -11 5 -14 3 -16 -7 -6
-10 9 -17 9 -32 0 -15 -10 -21 -9 -28 3 -7 10 -10 11 -10 2 0 -16 -121 -14
-132 2 -6 8 -11 7 -17 -3 -6 -10 -21 -12 -50 -8 -30 4 -41 2 -41 -8 0 -7 -8
-11 -17 -9 -10 2 -35 5 -57 8 -21 2 -42 10 -47 17 -6 10 -9 9 -15 -4 -4 -10
-12 -16 -19 -13 -7 2 -17 -6 -23 -19 -10 -22 -16 -24 -79 -20 -37 2 -72 0 -78
-4 -5 -4 -363 -6 -795 -4 -1058 4 -1036 4 -1860 -3 -684 -7 -859 -7 -1092 -1
-54 1 -98 -1 -98 -5 0 -5 -7 -8 -15 -8 -8 0 -15 3 -15 8 0 5 -746 6 -955 0
-22 0 -79 3 -127 7 -64 6 -88 5 -88 -4 0 -6 -14 -11 -32 -10 -27 0 -30 2 -13
9 16 6 17 9 5 14 -19 7 -81 3 -96 -7 -21 -13 -653 -10 -669 3 -6 5 -36 5 -71
1 -34 -5 -87 -7 -120 -5 -32 3 -144 6 -249 8 -104 2 -194 5 -200 6 -5 2 -44 0
-85 -5 -41 -5 -79 -7 -85 -6 -5 2 -17 3 -25 2 -36 -5 -338 -6 -335 -1 5 8
-193 6 -201 -2 -3 -4 -16 -2 -27 3 -13 8 -123 9 -341 6 -176 -2 -356 -2 -398
0 -74 5 -78 7 -78 29 0 13 -3 23 -7 23 -5 -1 -18 -1 -31 0 -19 1 -21 4 -13 19
9 16 5 18 -37 16 -26 -1 -71 -5 -100 -8 -28 -3 -52 -2 -52 2 1 17 27 39 54 46
23 6 27 11 22 29 -3 12 -6 32 -6 45 0 12 -6 22 -14 22 -8 0 -16 7 -20 15 -4
11 -21 15 -61 15 -64 0 -76 -19 -12 -21 34 -1 24 -5 -48 -18 -88 -17 -90 -17
-108 2 -10 11 -20 17 -24 14 -3 -4 -8 -57 -11 -119 -4 -100 -2 -115 13 -128
15 -12 73 -15 339 -16 176 -1 333 -3 349 -3 27 -1 27 -2 27 -71 l0 -70 8990 0
8990 0 0 238 c0 130 -4 242 -8 249 -5 8 -88 11 -292 11 -157 0 -312 4 -345 10
l-60 9 90 2 c50 1 100 4 113 7 32 9 27 33 -8 41 -44 8 -47 23 -6 23 20 0 36 4
36 10 0 12 -93 1 -98 -12 -2 -4 -34 -8 -70 -7 -43 0 -60 3 -47 8 47 19 -3374
-15 -3527 -34 -20 -3 -69 2 -108 10 -39 8 -88 15 -108 15 -24 0 -62 14 -107
39 -224 122 -328 190 -321 207 3 8 1 14 -4 14 -6 0 -10 5 -10 11 0 12 48 4 95
-16 43 -19 98 -36 102 -32 3 4 -219 111 -303 147 -67 28 -99 70 -99 132 0 54
27 91 80 108 33 11 89 -5 338 -99 80 -30 129 -42 192 -47 80 -6 83 -5 90 17 4
12 14 37 21 56 l14 33 51 -25 c68 -35 215 -65 316 -65 46 0 83 -4 83 -9 0 -5
25 -19 55 -30 86 -32 137 -61 132 -74 -2 -7 -16 -11 -31 -10 -14 1 -26 0 -26
-2 0 -12 169 -80 230 -91 135 -25 157 -27 140 -14 -12 9 -5 10 28 5 41 -7 42
-6 42 20 0 31 -17 32 185 -7 130 -24 206 -28 212 -11 3 7 -10 19 -29 27 -35
15 -217 44 -305 49 -40 2 -56 8 -72 26 -15 17 -21 20 -21 9 0 -16 -36 -17
-119 -3 -49 8 -39 25 17 25 48 0 39 15 -24 39 -67 25 -85 26 -141 5 -40 -16
-46 -16 -90 2 -27 10 -52 18 -57 19 -5 0 -11 5 -13 10 -2 7 21 9 65 7 106 -6
116 1 38 27 -55 19 -73 21 -88 12 -14 -9 -18 -8 -18 4 0 8 5 15 11 15 5 0 7 5
4 10 -4 7 3 9 22 4 l28 -6 -30 26 c-16 14 -33 25 -37 26 -14 0 -8 23 9 35 21
15 10 45 -16 45 -11 0 -25 -9 -31 -20 -9 -17 -8 -20 7 -20 14 0 18 -9 20 -35
1 -33 0 -35 -24 -29 -22 6 -25 4 -20 -10 4 -10 7 -20 7 -22 0 -3 4 -3 10 1 5
3 5 -7 -1 -25 -13 -36 -24 -40 -15 -5 4 14 2 25 -4 25 -5 0 -10 7 -10 16 0 12
-6 15 -22 10 -89 -25 -255 -35 -242 -14 3 5 11 7 17 6 7 -1 46 3 87 10 41 7
92 13 113 15 20 1 37 7 37 12 0 6 -74 9 -208 7 -212 -3 -346 8 -370 32 -10 10
-11 27 -3 77 5 35 13 98 16 139 4 41 11 82 16 91 7 14 36 18 171 25 90 5 148
10 130 12 -27 3 -30 5 -19 17 8 7 25 15 38 17 29 4 28 21 -2 28 -33 8 -36 30
-5 30 17 0 26 5 26 16 0 11 -5 14 -16 10 -8 -3 -34 -3 -55 0 l-40 7 31 15 c25
12 38 13 61 5 16 -6 27 -7 23 -2 -3 5 5 9 17 9 18 0 20 -2 9 -15 -10 -12 -10
-19 -2 -27 14 -14 45 9 38 28 -3 9 16 11 77 10 45 -2 69 -1 52 1 -82 12 -27
21 162 28 179 6 218 5 275 -10 58 -14 73 -15 105 -4 52 18 32 18 493 23 228 2
379 1 335 -3 l-80 -7 62 -2 c34 -1 65 -6 68 -12 3 -5 15 -10 26 -10 11 0 17 5
14 10 -8 13 76 2 90 -12 6 -6 -5 -7 -30 -4 -29 5 -35 4 -20 -3 11 -5 39 -10
61 -10 26 -1 44 -6 47 -15 8 -21 112 -31 137 -13 12 8 30 13 41 10 14 -4 19 0
20 13 0 11 3 14 6 7 6 -16 59 -17 68 -2 15 23 28 0 32 -54 l4 -57 -70 0 -71 0
0 -92 c0 -100 -23 -275 -37 -289 -5 -5 -23 -5 -41 1 -33 9 -560 6 -1059 -6
-210 -5 -251 -9 -246 -20 3 -8 17 -17 32 -20 14 -4 32 -12 39 -17 17 -14 144
-12 169 1 14 8 471 15 709 12 12 0 29 -12 38 -25 l16 -25 -187 -1 -188 -2 155
-15 c172 -17 1022 -23 1182 -8 l87 8 33 51 c18 29 35 54 39 57 3 3 26 36 49
75 24 38 48 74 55 80 22 17 46 117 32 133 -24 29 68 -19 107 -56 l39 -37 -24
35 c-13 19 -30 40 -39 47 -13 11 -13 12 2 13 39 0 104 -109 117 -197 l9 -58 1
66 c1 79 -15 123 -60 162 l-32 28 26 65 c45 109 35 138 -69 199 -44 26 -46 26
-142 15 -262 -29 -829 -27 -1052 4 -245 35 -403 48 -600 49 -192 2 -209 0
-270 -21 -36 -13 -80 -32 -98 -43 -36 -20 -78 -24 -102 -9 -19 12 -15 15 61
45 l64 26 -55 -5 c-30 -3 -91 -8 -135 -12 -79 -7 -80 -7 -41 -18 30 -9 -14
-11 -220 -12 -225 -2 -272 -5 -359 -23 -311 -68 -615 -93 -795 -67 -123 18
-331 58 -326 63 1 2 65 -4 142 -13 166 -20 517 -14 709 11 129 17 349 59 391
75 14 6 35 10 47 10 16 0 12 -5 -18 -19 l-40 -19 90 0 c50 0 81 2 70 5 -46 11
-35 22 21 21 32 0 77 6 99 14 76 29 80 29 30 2 -27 -15 -44 -29 -38 -31 7 -3
124 8 260 24 192 22 293 28 446 28 165 0 193 2 165 12 -18 6 -26 12 -18 13 8
1 -16 8 -55 16 -110 21 -441 26 -555 9z m-477 -172 c-13 -2 -35 -2 -50 0 -16
2 -5 4 22 4 28 0 40 -2 28 -4z m1664 -9 c-3 -3 -12 -4 -19 -1 -8 3 -5 6 6 6
11 1 17 -2 13 -5z m250 0 c-3 -3 -12 -4 -19 -1 -8 3 -5 6 6 6 11 1 17 -2 13
-5z m-2177 -54 c0 -5 -4 -10 -10 -10 -5 0 -10 5 -10 10 0 6 5 10 10 10 6 0 10
-4 10 -10z m2404 -77 c-47 -108 -57 -208 -29 -298 18 -61 14 -67 -9 -15 -10
22 -21 38 -26 35 -10 -6 -34 51 -25 64 3 6 0 9 -7 6 -10 -4 -13 9 -12 52 2 60
15 106 37 126 15 15 81 67 85 67 1 0 -5 -17 -14 -37z m361 -23 c-67 -16 -147
-61 -193 -107 -43 -43 -100 -139 -89 -150 3 -2 1 -20 -4 -40 -7 -35 0 -97 16
-137 14 -33 -13 -9 -29 27 -77 164 -5 354 144 387 30 7 71 14 90 17 19 2 36 6
39 8 2 3 16 5 30 4 25 -1 25 -1 -4 -9z m-3875 -59 c0 -14 -41 -20 -170 -25
-109 -5 -111 -4 -40 5 41 5 98 14 125 18 70 12 85 12 85 2z m-392 -38 c-10 -2
-28 -2 -40 0 -13 2 -5 4 17 4 22 1 32 -1 23 -4z m4132 2 c0 -2 -10 -9 -22 -15
-22 -11 -22 -10 -4 4 21 17 26 19 26 11z m-3802 -57 l3 -48 -123 0 c-108 0
-426 -10 -778 -25 -158 -6 -600 -13 -520 -8 132 8 76 21 -112 25 -162 4 -196
2 -211 -11 -16 -13 -21 -13 -49 3 -18 11 -33 15 -37 9 -3 -6 -43 -9 -89 -8
-65 1 -82 -1 -78 -12 3 -7 1 -13 -3 -13 -5 0 -11 6 -14 14 -4 10 -26 13 -91
12 -87 -2 -96 0 -74 22 14 14 218 17 218 3 0 -5 19 -5 43 -1 23 5 173 11 332
13 160 3 400 11 535 17 135 6 364 17 510 24 146 7 278 9 293 5 17 -5 40 -3 55
3 27 12 130 26 167 24 17 -1 21 -9 23 -48z m877 -7 c3 -5 1 -12 -5 -16 -5 -3
-10 1 -10 9 0 18 6 21 15 7z m-3488 -27 c-3 -3 -12 -4 -19 -1 -8 3 -5 6 6 6
11 1 17 -2 13 -5z m3438 -15 c11 -16 1 -19 -13 -3 -7 8 -8 14 -3 14 5 0 13 -5
16 -11z m22 -11 c-3 -8 -6 -5 -6 6 -1 11 2 17 5 13 3 -3 4 -12 1 -19z m-3271
-5 c-10 -10 -49 -12 -66 -2 -10 6 0 8 29 9 24 0 41 -3 37 -7z m2434 -3 c0 -5
-15 -10 -32 -11 -18 0 -343 -11 -723 -23 -379 -12 -694 -19 -698 -16 -9 8 109
14 608 31 176 6 417 14 535 18 118 4 236 9 263 9 26 1 47 -2 47 -8z m-1935
-10 c3 -5 1 -10 -4 -10 -6 0 -11 5 -11 10 0 6 2 10 4 10 3 0 8 -4 11 -10z
m-305 -10 c0 -5 -7 -10 -16 -10 -8 0 -12 5 -9 10 3 6 10 10 16 10 5 0 9 -4 9
-10z m57 4 c-3 -3 -12 -4 -19 -1 -8 3 -5 6 6 6 11 1 17 -2 13 -5z m598 -4 c4
-6 -15 -9 -52 -8 l-58 1 45 7 c25 4 48 8 52 8 4 1 10 -2 13 -8z m-265 -16 c0
-2 -7 -4 -15 -4 -8 0 -15 4 -15 10 0 5 7 7 15 4 8 -4 15 -8 15 -10z m1840 6
c0 -5 -15 -10 -32 -10 -18 0 -271 -9 -563 -20 -609 -23 -632 -23 -620 -11 6 5
251 16 545 25 294 10 544 18 555 20 48 8 115 5 115 -4z m-2180 -10 c0 -5 -12
-10 -27 -9 l-28 1 25 8 c14 4 26 8 28 9 1 1 2 -3 2 -9z m143 3 c-7 -2 -19 -2
-25 0 -7 3 -2 5 12 5 14 0 19 -2 13 -5z m44 1 c-3 -3 -12 -4 -19 -1 -8 3 -5 6
6 6 11 1 17 -2 13 -5z m-672 -26 c-6 11 -3 12 13 3 11 -6 67 -12 124 -12 l103
-2 -70 -9 c-38 -5 -91 -7 -117 -5 -28 2 -48 0 -48 -6 0 -6 -9 0 -20 13 -11 12
-17 27 -14 32 3 5 13 1 21 -9 8 -10 11 -12 8 -5z m1108 5 c-13 -2 -33 -2 -45
0 -13 2 -3 4 22 4 25 0 35 -2 23 -4z m74 1 c-3 -3 -12 -4 -19 -1 -8 3 -5 6 6
6 11 1 17 -2 13 -5z m1493 -3 c0 -4 -93 -11 -207 -15 -115 -4 -433 -16 -708
-27 -578 -22 -572 -22 -560 -10 6 4 164 14 352 21 188 7 487 18 665 25 423 16
458 17 458 6z m-2387 -18 c-7 -2 -19 -2 -25 0 -7 3 -2 5 12 5 14 0 19 -2 13
-5z m1100 -3 c-17 -4 -154 -11 -305 -15 -150 -4 -358 -10 -461 -14 -104 -3
-191 -3 -193 0 -2 3 158 11 354 18 196 7 366 14 377 15 47 7 258 4 228 -4z
m2077 -10 c8 -5 11 -10 5 -10 -5 0 -17 5 -25 10 -8 5 -10 10 -5 10 6 0 17 -5
25 -10z m-790 -9 c0 -10 -110 -16 -775 -36 -575 -18 -558 -18 -551 -6 4 5 41
9 84 10 42 0 187 5 322 11 135 5 337 12 449 15 113 3 206 7 208 9 9 8 263 6
263 -3z m-1628 -23 c-9 -9 -15 -9 -24 0 -9 9 -7 12 12 12 19 0 21 -3 12 -12z
m98 8 c0 -8 -60 -12 -72 -4 -8 4 4 8 30 8 23 0 42 -2 42 -4z m135 -36 c-27 -5
-99 -8 -160 -7 -88 0 -99 2 -55 7 30 4 102 7 160 7 86 0 96 -1 55 -7z m1460 0
c4 -7 -44 -9 -137 -8 l-143 2 120 6 c66 3 128 7 137 8 9 1 20 -2 23 -8z m-372
-7 c-51 -2 -135 -2 -185 0 -51 1 -10 3 92 3 102 0 143 -2 93 -3z m-1613 -13
c0 -5 -5 -10 -11 -10 -5 0 -7 5 -4 10 3 6 8 10 11 10 2 0 4 -4 4 -10z m50 0
c0 -5 -4 -10 -10 -10 -5 0 -10 5 -10 10 0 6 5 10 10 10 6 0 10 -4 10 -10z
m153 3 c-13 -2 -35 -2 -50 0 -16 2 -5 4 22 4 28 0 40 -2 28 -4z m775 0 c-10
-2 -26 -2 -35 0 -10 3 -2 5 17 5 19 0 27 -2 18 -5z m125 0 c-7 -2 -21 -2 -30
0 -10 3 -4 5 12 5 17 0 24 -2 18 -5z m105 0 c-15 -2 -42 -2 -60 0 -18 2 -6 4
27 4 33 0 48 -2 33 -4z m-1398 -19 c0 -2 -12 -4 -26 -4 -14 0 -23 4 -20 9 6 8
46 4 46 -5z m958 9 c-10 -2 -28 -2 -40 0 -13 2 -5 4 17 4 22 1 32 -1 23 -4z
m2008 -31 c-3 -2 -14 2 -25 10 -12 8 -18 18 -14 21 3 4 15 0 25 -10 10 -9 16
-18 14 -21z m-3077 24 c-2 -2 -40 -7 -84 -10 -56 -5 -76 -4 -65 3 13 10 159
16 149 7z m48 -2 c-3 -3 -12 -4 -19 -1 -8 3 -5 6 6 6 11 1 17 -2 13 -5z m736
-1 c-13 -2 -33 -2 -45 0 -13 2 -3 4 22 4 25 0 35 -2 23 -4z m74 1 c-3 -3 -12
-4 -19 -1 -8 3 -5 6 6 6 11 1 17 -2 13 -5z m-1262 -14 c3 -5 1 -10 -4 -10 -6
0 -11 5 -11 10 0 6 2 10 4 10 3 0 8 -4 11 -10z m218 3 c-7 -2 -19 -2 -25 0 -7
3 -2 5 12 5 14 0 19 -2 13 -5z m760 0 c-24 -2 -62 -2 -85 0 -24 2 -5 4 42 4
47 0 66 -2 43 -4z m-250 -10 c-7 -2 -19 -2 -25 0 -7 3 -2 5 12 5 14 0 19 -2
13 -5z m54 1 c-3 -3 -12 -4 -19 -1 -8 3 -5 6 6 6 11 1 17 -2 13 -5z m-219 -11
c-10 -2 -28 -2 -40 0 -13 2 -5 4 17 4 22 1 32 -1 23 -4z m-120 -10 c-10 -2
-28 -2 -40 0 -13 2 -5 4 17 4 22 1 32 -1 23 -4z m-420 -18 c-8 -8 -109 -8
-118 1 -6 5 15 8 56 6 36 -2 64 -5 62 -7z m4622 -175 c8 -5 12 -11 9 -14 -3
-3 -14 1 -25 9 -21 16 -8 20 16 5z m-67 -67 c-7 -2 -21 -2 -30 0 -10 3 -4 5
12 5 17 0 24 -2 18 -5z m2467 -273 c-210 -10 -2195 -22 -2186 -13 5 5 732 12
2111 19 l240 2 -165 -8z m-2769 -144 c-9 -11 -9 -15 1 -19 8 -4 7 -6 -4 -6
-11 -1 -15 -6 -12 -16 9 -23 -33 -19 -46 4 -8 16 -6 23 12 35 29 21 65 22 49
2z m-3075 -18 c-18 -10 -39 -2 -31 12 3 4 15 6 26 3 19 -5 19 -7 5 -15z m2549
-8 c3 -11 13 -20 21 -20 17 0 19 -16 2 -22 -7 -3 -35 -4 -63 -3 -43 1 -50 4
-53 22 -3 19 1 21 35 18 21 -1 27 0 13 3 l-25 5 25 7 c37 12 38 12 45 -10z
m-2808 4 c-3 -3 -12 -4 -19 -1 -8 3 -5 6 6 6 11 1 17 -2 13 -5z m111 -19 c-3
-3 -9 2 -12 12 -6 14 -5 15 5 6 7 -7 10 -15 7 -18z m-721 -7 c-3 -8 -6 -5 -6
6 -1 11 2 17 5 13 3 -3 4 -12 1 -19z m41 -18 c1 -28 -3 -40 -14 -40 -16 0 -18
18 -4 54 13 36 18 33 18 -14z m169 34 c-3 -3 -12 -4 -19 -1 -8 3 -5 6 6 6 11
1 17 -2 13 -5z m143 -24 c0 -15 30 -12 30 3 0 6 5 4 11 -6 14 -24 12 -26 -44
-31 -35 -3 -47 -1 -47 9 0 7 8 12 18 11 9 0 16 5 15 12 -2 6 2 12 7 12 6 0 10
-4 10 -10z m2708 3 c-10 -2 -26 -2 -35 0 -10 3 -2 5 17 5 19 0 27 -2 18 -5z
m-1014 -9 c15 -6 15 -8 -1 -19 -10 -8 -18 -19 -18 -27 0 -8 -13 -13 -35 -13
-21 0 -35 5 -35 13 0 6 16 21 35 31 19 10 36 19 37 20 1 0 9 -2 17 -5z m-1434
-14 c0 -5 -9 -10 -20 -10 -11 0 -20 5 -20 10 0 6 9 10 20 10 11 0 20 -4 20
-10z m1140 0 c0 -5 -4 -10 -10 -10 -5 0 -10 5 -10 10 0 6 5 10 10 10 6 0 10
-4 10 -10z m-2723 -22 c-3 -8 -6 -5 -6 6 -1 11 2 17 5 13 3 -3 4 -12 1 -19z
m4353 12 c0 -5 -4 -10 -10 -10 -5 0 -10 5 -10 10 0 6 5 10 10 10 6 0 10 -4 10
-10z m-4295 -10 c3 -5 -3 -10 -15 -10 -12 0 -18 5 -15 10 3 6 10 10 15 10 5 0
12 -4 15 -10z m-155 -10 c0 -5 -10 -10 -22 -10 -19 0 -20 2 -8 10 19 13 30 13
30 0z m-9896 -15 c-7 -17 -20 -20 -29 -6 -3 5 3 12 12 14 10 3 19 5 20 6 1 0
0 -6 -3 -14z m12739 8 c-7 -2 -21 -2 -30 0 -10 3 -4 5 12 5 17 0 24 -2 18 -5z
m-12585 -30 c5 -17 -26 -29 -40 -15 -6 6 -7 15 -3 22 9 14 37 9 43 -7z m9777
-23 c3 -5 1 -10 -4 -10 -6 0 -11 5 -11 10 0 6 2 10 4 10 3 0 8 -4 11 -10z
m-9908 -12 c7 17 24 15 17 -3 -6 -15 -64 -18 -64 -4 0 13 25 16 33 5 6 -8 10
-7 14 2z m9593 -2 c0 -2 -7 -7 -16 -10 -8 -3 -12 -2 -9 4 6 10 25 14 25 6z
m-9463 -12 c-3 -3 -12 -4 -19 -1 -8 3 -5 6 6 6 11 1 17 -2 13 -5z m9120 -10
c-3 -3 -12 -4 -19 -1 -8 3 -5 6 6 6 11 1 17 -2 13 -5z m-8974 -11 c-24 -5 -32
-22 -10 -24 6 0 -1 -5 -17 -9 -16 -5 -33 -7 -38 -4 -5 3 -59 6 -121 6 -105 1
-108 1 -47 9 36 4 94 10 129 14 36 3 67 7 69 10 3 3 17 4 31 4 24 -2 24 -2 4
-6z m41 -18 c3 -8 1 -15 -4 -15 -6 0 -10 7 -10 15 0 8 2 15 4 15 2 0 6 -7 10
-15z m8731 -5 c3 -5 -1 -10 -10 -10 -9 0 -13 5 -10 10 3 6 8 10 10 10 2 0 7
-4 10 -10z m-400 -10 c-3 -5 -12 -7 -20 -3 -21 7 -19 13 6 13 11 0 18 -4 14
-10z m170 0 c-3 -5 -33 -10 -66 -10 -33 0 -59 4 -59 10 0 6 29 10 66 10 41 0
63 -4 59 -10z m296 -3 c-7 -7 -14 -8 -21 -1 -6 6 -2 10 12 11 16 2 18 -1 9
-10z"/>
<path d="M10910 1875 c-7 -8 -19 -15 -26 -15 -23 0 -16 -15 15 -33 30 -18 40
-13 54 25 9 25 -26 43 -43 23z"/>
<path d="M12660 1851 c0 -5 14 -14 30 -20 17 -5 30 -8 30 -5 0 3 13 -4 30 -16
16 -12 35 -18 41 -14 7 4 9 3 6 -3 -8 -13 58 -33 107 -33 44 0 40 16 -7 25
-17 4 -72 22 -121 41 -91 35 -116 40 -116 25z"/>
<path d="M16450 1829 c-19 -5 -14 -7 23 -8 26 -1 47 1 47 3 0 8 -46 12 -70 5z"/>
<path d="M11533 1818 c126 -5 261 -5 320 0 81 7 37 9 -218 9 l-320 0 218 -9z"/>
<path d="M16543 1823 c9 -2 23 -2 30 0 6 3 -1 5 -18 5 -16 0 -22 -2 -12 -5z"/>
<path d="M16608 1813 c6 -2 18 -2 25 0 6 3 1 5 -13 5 -14 0 -19 -2 -12 -5z"/>
<path d="M16763 1793 c9 -2 23 -2 30 0 6 3 -1 5 -18 5 -16 0 -22 -2 -12 -5z"/>
<path d="M17638 1763 c23 -2 61 -2 85 0 23 2 4 4 -43 4 -47 0 -66 -2 -42 -4z"/>
<path d="M13276 1744 c-84 -13 -292 -67 -304 -79 -12 -12 52 -3 154 20 60 14
153 34 207 44 54 10 101 21 104 25 10 10 -65 5 -161 -10z"/>
<path d="M11170 1714 c0 -5 52 -62 115 -126 63 -65 115 -124 115 -131 0 -8 11
-19 25 -25 32 -15 99 -16 90 -2 -3 6 -19 10 -36 10 -24 0 -52 23 -169 141 -77
78 -140 137 -140 133z"/>
<path d="M13469 1705 c-109 -18 -183 -38 -355 -94 -83 -27 -177 -52 -210 -56
-32 -3 -93 -13 -134 -20 -41 -8 -88 -16 -105 -18 -91 -12 56 -5 175 8 74 8
261 20 415 26 283 10 389 25 464 63 36 19 64 53 58 69 -13 35 -166 46 -308 22z"/>
<path d="M13790 1711 c0 -5 9 -11 20 -14 13 -3 20 0 20 9 0 8 -9 14 -20 14
-11 0 -20 -4 -20 -9z"/>
<path d="M15580 1710 c-20 -6 -21 -8 -5 -8 11 0 31 4 45 8 20 6 21 8 5 8 -11
0 -31 -4 -45 -8z"/>
<path d="M16103 1713 c20 -2 54 -2 75 0 20 2 3 4 -38 4 -41 0 -58 -2 -37 -4z"/>
<path d="M14730 1700 l-35 -7 35 -1 c19 0 49 4 65 8 l30 8 -30 0 c-16 -1 -46
-4 -65 -8z"/>
<path d="M15378 1703 c12 -2 30 -2 40 0 9 3 -1 5 -23 4 -22 0 -30 -2 -17 -4z"/>
<path d="M15468 1703 c12 -2 30 -2 40 0 9 3 -1 5 -23 4 -22 0 -30 -2 -17 -4z"/>
<path d="M16198 1693 c7 -3 16 -2 19 1 4 3 -2 6 -13 5 -11 0 -14 -3 -6 -6z"/>
<path d="M14248 1683 c12 -2 32 -2 45 0 12 2 2 4 -23 4 -25 0 -35 -2 -22 -4z"/>
<path d="M14450 1680 l-95 -6 105 -1 c58 0 134 3 170 7 l65 7 -75 0 c-41 -1
-118 -4 -170 -7z"/>
<path d="M15068 1683 c7 -3 16 -2 19 1 4 3 -2 6 -13 5 -11 0 -14 -3 -6 -6z"/>
<path d="M10805 1670 c-3 -5 0 -10 7 -10 9 0 9 -3 -2 -10 -13 -8 -13 -10 2
-10 22 0 41 -36 34 -63 -8 -32 11 -57 44 -57 16 0 32 4 35 10 3 5 0 7 -8 4 -8
-3 -17 -1 -20 3 -3 5 6 9 21 8 16 0 26 -6 24 -14 -1 -7 2 -10 8 -6 14 9 -6 41
-65 103 -49 51 -68 62 -80 42z m120 -89 c3 -5 2 -12 -3 -15 -5 -3 -9 1 -9 9 0
17 3 19 12 6z"/>
<path d="M15200 1665 c0 -9 5 -15 11 -13 6 2 11 8 11 13 0 5 -5 11 -11 13 -6
2 -11 -4 -11 -13z"/>
<path d="M15240 1660 c0 -5 5 -10 10 -10 6 0 10 5 10 10 0 6 -4 10 -10 10 -5
0 -10 -4 -10 -10z"/>
<path d="M10738 1633 c6 -2 18 -2 25 0 6 3 1 5 -13 5 -14 0 -19 -2 -12 -5z"/>
<path d="M10760 1592 c0 -18 56 -76 63 -65 3 5 -9 25 -28 43 -19 19 -35 29
-35 22z"/>
<path d="M16560 1570 l-245 -6 320 -1 c176 -1 329 2 340 7 21 9 -7 9 -415 0z"/>
<path d="M10398 1484 c-5 -4 -8 -16 -8 -26 0 -10 -4 -18 -9 -18 -13 0 -53
-100 -47 -116 9 -23 29 -16 23 8 -7 23 15 82 40 110 13 15 32 18 109 18 51 0
96 4 99 10 4 6 -19 10 -62 10 -37 0 -84 3 -103 6 -19 3 -38 2 -42 -2z"/>
<path d="M11538 1483 c12 -2 30 -2 40 0 9 3 -1 5 -23 4 -22 0 -30 -2 -17 -4z"/>
<path d="M11618 1483 c12 -2 32 -2 45 0 12 2 2 4 -23 4 -25 0 -35 -2 -22 -4z"/>
<path d="M11888 1483 c6 -2 18 -2 25 0 6 3 1 5 -13 5 -14 0 -19 -2 -12 -5z"/>
<path d="M18330 1422 c-42 -17 -45 -20 -47 -57 -1 -22 -10 -83 -21 -136 -15
-78 -27 -107 -61 -158 -23 -33 -64 -79 -92 -100 -27 -22 -45 -43 -39 -46 19
-12 222 -45 269 -44 35 0 41 2 26 9 -15 7 -9 9 25 9 79 1 204 9 220 15 8 2 24
6 34 8 29 5 30 23 2 41 -22 15 -29 15 -67 2 -25 -9 -73 -14 -123 -13 l-81 1
80 7 c44 4 89 11 100 15 28 12 70 45 57 45 -6 0 -13 -4 -16 -8 -3 -5 -45 -10
-94 -11 -68 -1 -99 3 -133 17 l-44 20 48 -6 c43 -4 51 -2 77 23 44 42 60 85
68 182 6 80 9 89 32 100 14 7 24 18 22 24 -1 6 6 8 19 4 19 -6 20 -5 9 15 -30
55 -176 78 -270 42z m124 -11 c7 -10 -93 -35 -103 -26 -3 3 5 8 18 12 17 4 19
8 9 14 -8 6 2 9 29 9 23 0 44 -4 47 -9z m-140 -52 c-21 -24 -29 -18 -14 10 6
12 16 19 21 15 6 -4 4 -13 -7 -25z m3 -465 c-3 -3 -12 -4 -19 -1 -8 3 -5 6 6
6 11 1 17 -2 13 -5z"/>
<path d="M18655 1325 c4 -11 16 -51 26 -90 l19 -70 -3 56 c-2 38 -11 68 -26
90 -13 19 -20 25 -16 14z"/>
<path d="M11020 1304 c14 -17 36 -39 50 -50 l25 -19 -22 28 c-12 16 -34 38
-50 50 l-28 22 25 -31z"/>
<path d="M18580 1311 c0 -10 5 -33 11 -51 10 -27 13 -30 21 -16 6 10 5 29 -3
51 -14 38 -29 46 -29 16z"/>
<path d="M15618 1193 c7 -3 16 -2 19 1 4 3 -2 6 -13 5 -11 0 -14 -3 -6 -6z"/>
<path d="M18611 1184 c0 -11 3 -14 6 -6 3 7 2 16 -1 19 -3 4 -6 -2 -5 -13z"/>
<path d="M15610 1156 c0 -9 5 -16 10 -16 6 0 10 4 10 9 0 6 -4 13 -10 16 -5 3
-10 -1 -10 -9z"/>
<path d="M15840 1099 c0 -19 80 -36 160 -33 47 2 91 3 99 4 36 1 -3 12 -56 16
-32 2 -91 7 -130 12 -40 4 -73 5 -73 1z"/>
<path d="M12668 1072 c-16 -7 790 -5 842 2 14 2 -166 3 -400 4 -234 0 -433 -2
-442 -6z"/>
<path d="M10917 1063 c-12 -11 -8 -23 8 -23 8 0 15 7 15 15 0 16 -12 20 -23 8z"/>
<path d="M16178 1063 c12 -2 32 -2 45 0 12 2 2 4 -23 4 -25 0 -35 -2 -22 -4z"/>
<path d="M16325 1060 c3 -5 12 -10 20 -10 8 0 17 5 20 10 4 6 -5 10 -20 10
-15 0 -24 -4 -20 -10z"/>
<path d="M9571 1044 c0 -11 3 -14 6 -6 3 7 2 16 -1 19 -3 4 -6 -2 -5 -13z"/>
<path d="M15792 989 c1 -13 8 -23 13 -21 15 3 12 35 -3 40 -9 3 -13 -3 -10
-19z"/>
<path d="M9618 963 c7 -3 16 -2 19 1 4 3 -2 6 -13 5 -11 0 -14 -3 -6 -6z"/>
<path d="M15390 960 c0 -5 5 -10 11 -10 5 0 7 5 4 10 -3 6 -8 10 -11 10 -2 0
-4 -4 -4 -10z"/>
<path d="M6830 921 c-57 -73 -59 -72 198 -67 125 3 408 6 629 6 l401 1 16 40
c9 21 16 44 16 49 0 7 -212 10 -615 10 l-614 -1 -31 -38z"/>
<path d="M11683 943 c26 -2 67 -2 90 0 23 2 2 3 -48 3 -49 0 -68 -1 -42 -3z"/>
<path d="M15980 942 c0 -15 32 -24 44 -12 7 7 7 10 -1 10 -6 0 -18 3 -27 6 -9
3 -16 2 -16 -4z"/>
<path d="M11380 920 c-17 -5 3 -8 60 -8 57 0 77 3 60 8 -14 4 -41 8 -60 8 -19
0 -46 -4 -60 -8z"/>
<path d="M18750 900 c30 -10 56 -17 58 -16 5 6 -77 36 -96 36 -9 -1 8 -9 38
-20z"/>
<path d="M12338 893 c12 -2 32 -2 45 0 12 2 2 4 -23 4 -25 0 -35 -2 -22 -4z"/>
<path d="M11267 883 c18 -2 50 -2 70 0 21 2 7 4 -32 4 -38 0 -55 -2 -38 -4z"/>
<path d="M18540 864 c-8 -3 -51 -9 -95 -14 -76 -8 -74 -8 30 -3 61 2 114 9
120 14 9 9 -25 11 -55 3z"/>
<path d="M18978 833 c7 -3 16 -2 19 1 4 3 -2 6 -13 5 -11 0 -14 -3 -6 -6z"/>
<path d="M9577 823 c-12 -11 -7 -33 7 -33 12 0 26 20 26 36 0 7 -26 5 -33 -3z"/>
<path d="M17163 823 c26 -2 67 -2 90 0 23 2 2 3 -48 3 -49 0 -68 -1 -42 -3z"/>
<path d="M16705 810 c-4 -6 6 -10 24 -10 16 0 33 5 36 10 4 6 -6 10 -24 10
-16 0 -33 -4 -36 -10z"/>
<path d="M16943 813 c9 -2 23 -2 30 0 6 3 -1 5 -18 5 -16 0 -22 -2 -12 -5z"/>
<path d="M17013 813 c15 -2 37 -2 50 0 12 2 0 4 -28 4 -27 0 -38 -2 -22 -4z"/>
<path d="M5238 803 c7 -3 16 -2 19 1 4 3 -2 6 -13 5 -11 0 -14 -3 -6 -6z"/>
<path d="M14882 784 c-15 -10 -22 -25 -22 -49 0 -50 18 -52 22 -3 2 36 7 44
26 46 12 2 22 8 22 13 0 14 -23 11 -48 -7z"/>
<path d="M15688 783 c6 -2 18 -2 25 0 6 3 1 5 -13 5 -14 0 -19 -2 -12 -5z"/>
<path d="M15815 780 c3 -5 8 -10 11 -10 2 0 4 5 4 10 0 6 -5 10 -11 10 -5 0
-7 -4 -4 -10z"/>
<path d="M15848 783 c7 -3 16 -2 19 1 4 3 -2 6 -13 5 -11 0 -14 -3 -6 -6z"/>
<path d="M15918 783 c7 -3 16 -2 19 1 4 3 -2 6 -13 5 -11 0 -14 -3 -6 -6z"/>
<path d="M18560 780 c-63 -4 -306 -8 -540 -9 -234 -2 -454 -6 -490 -11 -36 -4
203 -6 542 -5 532 3 610 6 630 19 l22 16 -24 -2 c-14 -1 -77 -4 -140 -8z"/>
<path d="M9566 772 c-3 -6 -36 -13 -73 -16 -38 -3 -808 -9 -1713 -12 -905 -4
-1829 -8 -2055 -9 -226 -1 -427 2 -449 7 -51 12 -74 -7 -28 -23 20 -7 32 -18
32 -29 0 -10 7 -20 15 -24 24 -9 4164 -7 4228 2 32 5 62 13 67 18 5 5 10 27
12 49 2 30 -1 40 -14 43 -9 2 -19 -1 -22 -6z"/>
<path d="M17191 751 c-17 -11 123 -12 209 -2 58 7 51 8 -65 9 -71 1 -136 -2
-144 -7z"/>
<path d="M16815 740 l-70 -7 80 0 c44 0 91 3 105 8 22 6 21 7 -10 6 -19 0 -66
-4 -105 -7z"/>
<path d="M17038 743 c23 -2 59 -2 80 0 20 2 1 4 -43 4 -44 0 -61 -2 -37 -4z"/>
<path d="M17934 659 c-3 -5 7 -9 22 -9 15 0 24 3 20 7 -11 11 -35 12 -42 2z"/>
<path d="M18188 663 c106 -2 277 -2 380 0 103 1 16 2 -193 2 -209 0 -293 -1
-187 -2z"/>
<path d="M17273 653 c9 -2 23 -2 30 0 6 3 -1 5 -18 5 -16 0 -22 -2 -12 -5z"/>
<path d="M17558 653 c67 -2 177 -2 245 0 67 1 12 3 -123 3 -135 0 -190 -2
-122 -3z"/>
<path d="M16433 643 c26 -2 67 -2 90 0 23 2 2 3 -48 3 -49 0 -68 -1 -42 -3z"/>
<path d="M16578 643 c7 -3 16 -2 19 1 4 3 -2 6 -13 5 -11 0 -14 -3 -6 -6z"/>
<path d="M16693 643 c15 -2 37 -2 50 0 12 2 0 4 -28 4 -27 0 -38 -2 -22 -4z"/>
<path d="M16843 643 c37 -2 97 -2 135 0 37 2 6 3 -68 3 -74 0 -105 -1 -67 -3z"/>
<path d="M14000 610 c0 -5 14 -10 31 -10 17 0 28 4 24 10 -3 6 -17 10 -31 10
-13 0 -24 -4 -24 -10z"/>
<path d="M18730 601 c0 -5 11 -8 25 -7 38 4 43 16 7 16 -18 0 -32 -4 -32 -9z"/>
<path d="M2702 458 c6 -17 190 -18 195 0 4 9 -20 12 -97 12 -75 0 -101 -3 -98
-12z"/>
<path d="M785 420 c3 -5 13 -10 21 -10 8 0 14 5 14 10 0 6 -9 10 -21 10 -11 0
-17 -4 -14 -10z"/>
<path d="M855 410 c-8 -13 15 -13 35 0 12 8 11 10 -7 10 -12 0 -25 -4 -28 -10z"/>
<path d="M9596 401 c-4 -5 3 -12 14 -16 11 -3 20 -15 20 -26 0 -10 5 -19 10
-19 12 0 13 23 3 34 -5 4 -8 13 -8 19 0 15 -31 21 -39 8z"/>
<path d="M9666 395 c4 -8 8 -15 10 -15 2 0 4 7 4 15 0 8 -4 15 -10 15 -5 0 -7
-7 -4 -15z"/>
<path d="M10234 396 c-3 -8 -4 -23 -1 -33 3 -12 5 -9 6 9 0 14 7 29 14 31 9 4
9 6 -1 6 -7 1 -15 -5 -18 -13z"/>
<path d="M10523 403 c9 -2 25 -2 35 0 9 3 1 5 -18 5 -19 0 -27 -2 -17 -5z"/>
<path d="M10718 403 c7 -3 16 -2 19 1 4 3 -2 6 -13 5 -11 0 -14 -3 -6 -6z"/>
<path d="M11130 400 c-8 -5 -11 -12 -8 -16 4 -3 14 1 23 10 18 17 9 21 -15 6z"/>
<path d="M9860 396 c0 -2 6 -9 14 -15 10 -9 16 -8 26 4 11 13 8 15 -14 15 -14
0 -26 -2 -26 -4z"/>
<path d="M10008 388 c7 -7 12 -25 12 -40 0 -33 16 -37 22 -5 6 37 -2 57 -25
57 -16 0 -18 -3 -9 -12z"/>
<path d="M10096 385 c-3 -8 -12 -15 -21 -15 -8 0 -15 -4 -15 -8 0 -15 28 -47
36 -40 4 4 2 14 -4 21 -14 16 -6 27 20 27 10 0 18 7 18 15 0 8 -6 15 -14 15
-8 0 -16 -7 -20 -15z"/>
<path d="M11185 390 c-3 -5 -1 -10 4 -10 6 0 11 5 11 10 0 6 -2 10 -4 10 -3 0
-8 -4 -11 -10z"/>
<path d="M1143 378 c-6 -7 -13 -22 -17 -32 -5 -16 -4 -17 9 -6 8 7 21 10 29 7
23 -9 38 14 18 29 -22 17 -27 17 -39 2z"/>
<path d="M9805 380 c-3 -5 3 -10 15 -10 12 0 18 5 15 10 -3 6 -10 10 -15 10
-5 0 -12 -4 -15 -10z"/>
<path d="M10197 383 c-11 -10 -8 -43 3 -43 6 0 10 11 10 25 0 26 -2 29 -13 18z"/>
<path d="M10960 380 c0 -5 11 -10 25 -10 14 0 25 5 25 10 0 6 -11 10 -25 10
-14 0 -25 -4 -25 -10z"/>
<path d="M10162 355 c0 -16 2 -22 5 -12 2 9 2 23 0 30 -3 6 -5 -1 -5 -18z"/>
<path d="M10264 368 c-8 -13 22 -38 45 -38 18 0 48 17 41 22 -10 8 -61 28 -70
28 -5 0 -12 -5 -16 -12z"/>
<path d="M838 363 c-26 -6 -22 -39 5 -48 19 -6 62 -9 89 -6 13 2 -4 31 -17 31
-7 0 -18 7 -25 15 -13 15 -21 16 -52 8z"/>
<path d="M10707 346 c-4 -9 -14 -12 -25 -9 -11 2 -22 0 -26 -5 -5 -8 84 -25
92 -18 1 2 -6 13 -17 25 -15 17 -20 18 -24 7z"/>
<path d="M11140 341 c0 -13 27 -21 45 -15 25 10 17 24 -15 24 -16 0 -30 -4
-30 -9z"/>
<path d="M6370 300 c0 -13 5 -18 15 -14 8 4 15 12 15 20 0 8 -7 14 -15 14 -8
0 -15 -9 -15 -20z"/>
<path d="M1230 200 c0 -5 7 -10 15 -10 8 0 15 5 15 10 0 6 -7 10 -15 10 -8 0
-15 -4 -15 -10z"/>
<path d="M2930 200 c0 -5 7 -10 15 -10 8 0 15 5 15 10 0 6 -7 10 -15 10 -8 0
-15 -4 -15 -10z"/>
<path d="M1288 193 c6 -2 18 -2 25 0 6 3 1 5 -13 5 -14 0 -19 -2 -12 -5z"/>
<path d="M305 10 c-27 -7 -25 -8 18 -9 26 0 47 4 47 9 0 11 -21 11 -65 0z"/>
</g>
</svg>
